<mxfile host="65bd71144e">
    <diagram id="X5lTGYaWq4TT7NDkOouj" name="Page-1">
        <mxGraphModel dx="1038" dy="550" grid="1" gridSize="10" guides="1" tooltips="1" connect="1" arrows="1" fold="1" page="1" pageScale="1" pageWidth="827" pageHeight="1169" math="0" shadow="0">
            <root>
                <mxCell id="0"/>
                <mxCell id="1" parent="0"/>
                <mxCell id="2" value="Adopter" style="shape=umlActor;verticalLabelPosition=bottom;verticalAlign=top;html=1;outlineConnect=0;" parent="1" vertex="1">
                    <mxGeometry x="639" y="400" width="50" height="80" as="geometry"/>
                </mxCell>
                <mxCell id="3" value="Shelter/Admin" style="shape=umlActor;verticalLabelPosition=bottom;verticalAlign=top;html=1;outlineConnect=0;" parent="1" vertex="1">
                    <mxGeometry x="120" y="400" width="50" height="80" as="geometry"/>
                </mxCell>
                <mxCell id="4" value="Pet Adoption System" style="swimlane;whiteSpace=wrap;html=1;" parent="1" vertex="1">
                    <mxGeometry x="279" y="90" width="271" height="660" as="geometry"/>
                </mxCell>
                <mxCell id="11" value="Add new pets" style="ellipse;whiteSpace=wrap;html=1;align=center;" parent="4" vertex="1">
                    <mxGeometry x="50" y="100" width="180" height="50" as="geometry"/>
                </mxCell>
                <mxCell id="15" value="Log out" style="ellipse;whiteSpace=wrap;html=1;align=center;" parent="4" vertex="1">
                    <mxGeometry x="50" y="590" width="180" height="50" as="geometry"/>
                </mxCell>
                <mxCell id="13" value="Update pet information" style="ellipse;whiteSpace=wrap;html=1;align=center;" parent="4" vertex="1">
                    <mxGeometry x="45" y="522" width="180" height="50" as="geometry"/>
                </mxCell>
                <mxCell id="12" value="handles pet adoption" style="ellipse;whiteSpace=wrap;html=1;align=center;" parent="4" vertex="1">
                    <mxGeometry x="50" y="460" width="180" height="50" as="geometry"/>
                </mxCell>
                <mxCell id="20" value="fill agreement form" style="ellipse;whiteSpace=wrap;html=1;align=center;" parent="4" vertex="1">
                    <mxGeometry x="50" y="340" width="180" height="50" as="geometry"/>
                </mxCell>
                <mxCell id="19" value="Adopt a pet" style="ellipse;whiteSpace=wrap;html=1;align=center;" parent="4" vertex="1">
                    <mxGeometry x="50" y="280" width="180" height="50" as="geometry"/>
                </mxCell>
                <mxCell id="18" value="See details" style="ellipse;whiteSpace=wrap;html=1;align=center;" parent="4" vertex="1">
                    <mxGeometry x="50" y="220" width="180" height="50" as="geometry"/>
                </mxCell>
                <mxCell id="17" value="Browse pets" style="ellipse;whiteSpace=wrap;html=1;align=center;" parent="4" vertex="1">
                    <mxGeometry x="50" y="160" width="180" height="50" as="geometry"/>
                </mxCell>
                <mxCell id="21" value="Register and Login" style="ellipse;whiteSpace=wrap;html=1;align=center;" parent="4" vertex="1">
                    <mxGeometry x="49" y="40" width="180" height="50" as="geometry"/>
                </mxCell>
                <mxCell id="14" value="Adopters history" style="ellipse;whiteSpace=wrap;html=1;align=center;" parent="4" vertex="1">
                    <mxGeometry x="50" y="400" width="180" height="50" as="geometry"/>
                </mxCell>
                <mxCell id="26" value="" style="endArrow=none;html=1;entryX=1;entryY=0.5;entryDx=0;entryDy=0;" parent="1" target="21" edge="1">
                    <mxGeometry width="50" height="50" relative="1" as="geometry">
                        <mxPoint x="630" y="430" as="sourcePoint"/>
                        <mxPoint x="400" y="480" as="targetPoint"/>
                    </mxGeometry>
                </mxCell>
                <mxCell id="27" value="" style="endArrow=none;html=1;exitX=0;exitY=0.5;exitDx=0;exitDy=0;" parent="1" source="15" edge="1">
                    <mxGeometry width="50" height="50" relative="1" as="geometry">
                        <mxPoint x="350" y="530" as="sourcePoint"/>
                        <mxPoint x="180" y="430" as="targetPoint"/>
                    </mxGeometry>
                </mxCell>
                <mxCell id="28" value="" style="endArrow=none;html=1;exitX=0;exitY=0.5;exitDx=0;exitDy=0;" parent="1" source="13" edge="1">
                    <mxGeometry width="50" height="50" relative="1" as="geometry">
                        <mxPoint x="350" y="530" as="sourcePoint"/>
                        <mxPoint x="180" y="430" as="targetPoint"/>
                    </mxGeometry>
                </mxCell>
                <mxCell id="29" value="" style="endArrow=none;html=1;exitX=0;exitY=0.5;exitDx=0;exitDy=0;" parent="1" source="12" edge="1">
                    <mxGeometry width="50" height="50" relative="1" as="geometry">
                        <mxPoint x="350" y="530" as="sourcePoint"/>
                        <mxPoint x="180" y="430" as="targetPoint"/>
                    </mxGeometry>
                </mxCell>
                <mxCell id="30" value="" style="endArrow=none;html=1;entryX=0;entryY=0.5;entryDx=0;entryDy=0;" parent="1" target="14" edge="1">
                    <mxGeometry width="50" height="50" relative="1" as="geometry">
                        <mxPoint x="180" y="430" as="sourcePoint"/>
                        <mxPoint x="400" y="480" as="targetPoint"/>
                    </mxGeometry>
                </mxCell>
                <mxCell id="31" value="" style="endArrow=none;html=1;entryX=0;entryY=0.5;entryDx=0;entryDy=0;" parent="1" target="11" edge="1">
                    <mxGeometry width="50" height="50" relative="1" as="geometry">
                        <mxPoint x="180" y="430" as="sourcePoint"/>
                        <mxPoint x="400" y="480" as="targetPoint"/>
                    </mxGeometry>
                </mxCell>
                <mxCell id="32" value="" style="endArrow=none;html=1;entryX=0;entryY=0.5;entryDx=0;entryDy=0;" parent="1" target="21" edge="1">
                    <mxGeometry width="50" height="50" relative="1" as="geometry">
                        <mxPoint x="180" y="430" as="sourcePoint"/>
                        <mxPoint x="400" y="480" as="targetPoint"/>
                    </mxGeometry>
                </mxCell>
                <mxCell id="33" value="" style="endArrow=none;html=1;exitX=1;exitY=0.5;exitDx=0;exitDy=0;" parent="1" source="18" edge="1">
                    <mxGeometry width="50" height="50" relative="1" as="geometry">
                        <mxPoint x="510" y="520" as="sourcePoint"/>
                        <mxPoint x="630" y="430" as="targetPoint"/>
                    </mxGeometry>
                </mxCell>
                <mxCell id="34" value="" style="endArrow=none;html=1;entryX=1;entryY=0.5;entryDx=0;entryDy=0;" parent="1" target="17" edge="1">
                    <mxGeometry width="50" height="50" relative="1" as="geometry">
                        <mxPoint x="630" y="430" as="sourcePoint"/>
                        <mxPoint x="560" y="470" as="targetPoint"/>
                    </mxGeometry>
                </mxCell>
                <mxCell id="36" value="" style="endArrow=none;html=1;exitX=1;exitY=0.5;exitDx=0;exitDy=0;" parent="1" source="20" edge="1">
                    <mxGeometry width="50" height="50" relative="1" as="geometry">
                        <mxPoint x="510" y="460" as="sourcePoint"/>
                        <mxPoint x="630" y="430" as="targetPoint"/>
                    </mxGeometry>
                </mxCell>
                <mxCell id="37" value="" style="endArrow=none;html=1;exitX=1;exitY=0.5;exitDx=0;exitDy=0;" parent="1" source="19" edge="1">
                    <mxGeometry width="50" height="50" relative="1" as="geometry">
                        <mxPoint x="510" y="460" as="sourcePoint"/>
                        <mxPoint x="630" y="430" as="targetPoint"/>
                    </mxGeometry>
                </mxCell>
                <mxCell id="38" value="" style="endArrow=none;html=1;exitX=1;exitY=0.5;exitDx=0;exitDy=0;" parent="1" source="15" edge="1">
                    <mxGeometry width="50" height="50" relative="1" as="geometry">
                        <mxPoint x="510" y="570" as="sourcePoint"/>
                        <mxPoint x="630" y="430" as="targetPoint"/>
                    </mxGeometry>
                </mxCell>
            </root>
        </mxGraphModel>
    </diagram>
</mxfile>